{
    "asset" : {
        "generator" : "Khronos glTF Blender I/O v1.7.33",
        "version" : "2.0"
    },
    "scene" : 0,
    "scenes" : [
        {
            "name" : "Scene",
            "nodes" : [
                0
            ]
        }
    ],
    "nodes" : [
        {
            "mesh" : 0,
            "name" : "2",
            "rotation" : [
                0.7071068286895752,
                0,
                0,
                0.7071068286895752
            ],
            "scale" : [
                0.25,
                0.25,
                0.30000001192092896
            ]
        }
    ],
    "materials" : [
        {
            "doubleSided" : true,
            "name" : "diffuse_Black",
            "pbrMetallicRoughness" : {
                "baseColorFactor" : [
                    0.49161025881767273,
                    0.516259491443634,
                    0.5488523840904236,
                    1
                ],
                "metallicFactor" : 0
            }
        }
    ],
    "meshes" : [
        {
            "name" : "2",
            "primitives" : [
                {
                    "attributes" : {
                        "POSITION" : 0,
                        "NORMAL" : 1,
                        "TEXCOORD_0" : 2
                    },
                    "indices" : 3,
                    "material" : 0
                }
            ]
        }
    ],
    "accessors" : [
        {
            "bufferView" : 0,
            "componentType" : 5126,
            "count" : 2304,
            "max" : [
                9.663505554199219,
                3.9169790744781494,
                -0.08721923828125
            ],
            "min" : [
                -9.360221862792969,
                -3.908268690109253,
                -5.24760103225708
            ],
            "type" : "VEC3"
        },
        {
            "bufferView" : 1,
            "componentType" : 5126,
            "count" : 2304,
            "type" : "VEC3"
        },
        {
            "bufferView" : 2,
            "componentType" : 5126,
            "count" : 2304,
            "type" : "VEC2"
        },
        {
            "bufferView" : 3,
            "componentType" : 5123,
            "count" : 11376,
            "type" : "SCALAR"
        }
    ],
    "bufferViews" : [
        {
            "buffer" : 0,
            "byteLength" : 27648,
            "byteOffset" : 0
        },
        {
            "buffer" : 0,
            "byteLength" : 27648,
            "byteOffset" : 27648
        },
        {
            "buffer" : 0,
            "byteLength" : 18432,
            "byteOffset" : 55296
        },
        {
            "buffer" : 0,
            "byteLength" : 22752,
            "byteOffset" : 73728
        }
    ],
    "buffers" : [
        {
            "byteLength" : 96480,
            "uri" : "data:application/octet-stream;base64,"
        }
    ]
}
