{
    "asset" : {
        "generator" : "Khronos glTF Blender I/O v1.7.33",
        "version" : "2.0"
    },
    "scene" : 0,
    "scenes" : [
        {
            "name" : "Scene",
            "nodes" : [
                0
            ]
        }
    ],
    "nodes" : [
        {
            "mesh" : 0,
            "name" : "wing",
            "rotation" : [
                0.7071068286895752,
                0,
                0,
                0.7071068286895752
            ]
        }
    ],
    "materials" : [
        {
            "doubleSided" : true,
            "name" : "tire",
            "pbrMetallicRoughness" : {
                "baseColorFactor" : [
                    0.21570000052452087,
                    0.21570000052452087,
                    0.21570000052452087,
                    1
                ],
                "roughnessFactor" : 0.8317072987556458
            }
        },
        {
            "doubleSided" : true,
            "name" : "metal2",
            "pbrMetallicRoughness" : {
                "baseColorFactor" : [
                    0.8431000113487244,
                    0.8431000113487244,
                    0.8431000113487244,
                    1
                ],
                "metallicFactor" : 0.6862999796867371,
                "roughnessFactor" : 0.8383095860481262
            }
        },
        {
            "doubleSided" : true,
            "name" : "Material__19",
            "pbrMetallicRoughness" : {
                "roughnessFactor" : 0.8383095860481262
            }
        },
        {
            "doubleSided" : true,
            "name" : "body_color",
            "pbrMetallicRoughness" : {
                "baseColorFactor" : [
                    0.24313700199127197,
                    0.5529410243034363,
                    0.7843130230903625,
                    1
                ],
                "metallicFactor" : 0.5267969965934753,
                "roughnessFactor" : 0.7965440154075623
            }
        },
        {
            "doubleSided" : true,
            "name" : "tirehouse",
            "pbrMetallicRoughness" : {
                "baseColorFactor" : [
                    0.15690000355243683,
                    0.15690000355243683,
                    0.15690000355243683,
                    1
                ],
                "metallicFactor" : 0.12030000239610672,
                "roughnessFactor" : 0.8383095860481262
            }
        },
        {
            "doubleSided" : true,
            "name" : "plt3",
            "pbrMetallicRoughness" : {
                "baseColorFactor" : [
                    0.9882000088691711,
                    0.1412000060081482,
                    0,
                    0.75
                ],
                "metallicFactor" : 0.37646666169166565,
                "roughnessFactor" : 0.8383095860481262
            }
        },
        {
            "doubleSided" : true,
            "name" : "plt1",
            "pbrMetallicRoughness" : {
                "baseColorFactor" : [
                    0.5803999900817871,
                    0.63919997215271,
                    0.6626999974250793,
                    0.5
                ],
                "metallicFactor" : 0.5450999736785889,
                "roughnessFactor" : 0.8383095860481262
            }
        },
        {
            "doubleSided" : true,
            "name" : "wire_115115115",
            "pbrMetallicRoughness" : {
                "baseColorFactor" : [
                    0.45100000500679016,
                    0.45100000500679016,
                    0.45100000500679016,
                    1
                ],
                "metallicFactor" : 0,
                "roughnessFactor" : 0.8192245960235596
            }
        },
        {
            "doubleSided" : true,
            "name" : "plt4",
            "pbrMetallicRoughness" : {
                "baseColorFactor" : [
                    1,
                    0.800000011920929,
                    0,
                    0.75
                ],
                "metallicFactor" : 0.6000000238418579,
                "roughnessFactor" : 0.8383095860481262
            }
        },
        {
            "doubleSided" : true,
            "name" : "glass3",
            "pbrMetallicRoughness" : {
                "baseColorFactor" : [
                    0.09000000357627869,
                    0.09000000357627869,
                    0.09000000357627869,
                    0.699999988079071
                ],
                "metallicFactor" : 0.12026666849851608,
                "roughnessFactor" : 0.8679803013801575
            }
        },
        {
            "doubleSided" : true,
            "name" : "wire_086086086",
            "pbrMetallicRoughness" : {
                "baseColorFactor" : [
                    0.33730000257492065,
                    0.33730000257492065,
                    0.33730000257492065,
                    1
                ],
                "metallicFactor" : 0.33730000257492065,
                "roughnessFactor" : 0.8192245960235596
            }
        },
        {
            "doubleSided" : true,
            "name" : "Black_Plastic",
            "pbrMetallicRoughness" : {
                "baseColorFactor" : [
                    0.14509999752044678,
                    0.14509999752044678,
                    0.14509999752044678,
                    1
                ],
                "metallicFactor" : 0,
                "roughnessFactor" : 0.8317072987556458
            }
        },
        {
            "doubleSided" : true,
            "name" : "metal",
            "pbrMetallicRoughness" : {
                "baseColorFactor" : [
                    0.5529000163078308,
                    0.5529000163078308,
                    0.5529000163078308,
                    1
                ],
                "metallicFactor" : 0.11156667023897171,
                "roughnessFactor" : 0.8383095860481262
            }
        }
    ],
    "meshes" : [
        {
            "name" : "wing",
            "primitives" : [
                {
                    "attributes" : {
                        "POSITION" : 0,
                        "NORMAL" : 1
                    },
                    "indices" : 2,
                    "material" : 0
                },
                {
                    "attributes" : {
                        "POSITION" : 3,
                        "NORMAL" : 4
                    },
                    "indices" : 5,
                    "material" : 1
                },
                {
                    "attributes" : {
                        "POSITION" : 6,
                        "NORMAL" : 7
                    },
                    "indices" : 8,
                    "material" : 2
                },
                {
                    "attributes" : {
                        "POSITION" : 9,
                        "NORMAL" : 10
                    },
                    "indices" : 11,
                    "material" : 3
                },
                {
                    "attributes" : {
                        "POSITION" : 12,
                        "NORMAL" : 13
                    },
                    "indices" : 14,
                    "material" : 4
                },
                {
                    "attributes" : {
                        "POSITION" : 15,
                        "NORMAL" : 16
                    },
                    "indices" : 17,
                    "material" : 5
                },
                {
                    "attributes" : {
                        "POSITION" : 18,
                        "NORMAL" : 19
                    },
                    "indices" : 20,
                    "material" : 6
                },
                {
                    "attributes" : {
                        "POSITION" : 21,
                        "NORMAL" : 22
                    },
                    "indices" : 23,
                    "material" : 7
                },
                {
                    "attributes" : {
                        "POSITION" : 24,
                        "NORMAL" : 25
                    },
                    "indices" : 26,
                    "material" : 8
                },
                {
                    "attributes" : {
                        "POSITION" : 27,
                        "NORMAL" : 28
                    },
                    "indices" : 29,
                    "material" : 9
                },
                {
                    "attributes" : {
                        "POSITION" : 30,
                        "NORMAL" : 31
                    },
                    "indices" : 32,
                    "material" : 10
                },
                {
                    "attributes" : {
                        "POSITION" : 33,
                        "NORMAL" : 34
                    },
                    "indices" : 35,
                    "material" : 11
                },
                {
                    "attributes" : {
                        "POSITION" : 36,
                        "NORMAL" : 37
                    },
                    "indices" : 38,
                    "material" : 12
                }
            ]
        }
    ],
    "accessors" : [
        {
            "bufferView" : 0,
            "componentType" : 5126,
            "count" : 1164,
            "max" : [
                2.6446807384490967,
                0.9053865075111389,
                -0.030754951760172844
            ],
            "min" : [
                -1.1155602931976318,
                -0.9038094878196716,
                -0.6487399339675903
            ],
            "type" : "VEC3"
        },
        {
            "bufferView" : 1,
            "componentType" : 5126,
            "count" : 1164,
            "type" : "VEC3"
        },
        {
            "bufferView" : 2,
            "componentType" : 5123,
            "count" : 6600,
            "type" : "SCALAR"
        },
        {
            "bufferView" : 3,
            "componentType" : 5126,
            "count" : 4451,
            "max" : [
                3.162702798843384,
                0.9190524816513062,
                -0.12664896249771118
            ],
            "min" : [
                -1.007643222808838,
                -0.9174764752388,
                -0.7831159830093384
            ],
            "type" : "VEC3"
        },
        {
            "bufferView" : 4,
            "componentType" : 5126,
            "count" : 4451,
            "type" : "VEC3"
        },
        {
            "bufferView" : 5,
            "componentType" : 5123,
            "count" : 15798,
            "type" : "SCALAR"
        },
        {
            "bufferView" : 6,
            "componentType" : 5126,
            "count" : 21,
            "max" : [
                -1.5668882131576538,
                0.18207350373268127,
                -0.6994069814682007
            ],
            "min" : [
                -1.6115012168884277,
                -0.18075847625732422,
                -0.850443959236145
            ],
            "type" : "VEC3"
        },
        {
            "bufferView" : 7,
            "componentType" : 5126,
            "count" : 21,
            "type" : "VEC3"
        },
        {
            "bufferView" : 8,
            "componentType" : 5123,
            "count" : 36,
            "type" : "SCALAR"
        },
        {
            "bufferView" : 9,
            "componentType" : 5126,
            "count" : 10068,
            "max" : [
                3.2678418159484863,
                1.0562374591827393,
                -0.20487694442272186
            ],
            "min" : [
                -1.6621582508087158,
                -1.054661512374878,
                -1.510754942893982
            ],
            "type" : "VEC3"
        },
        {
            "bufferView" : 10,
            "componentType" : 5126,
            "count" : 10068,
            "type" : "VEC3"
        },
        {
            "bufferView" : 11,
            "componentType" : 5123,
            "count" : 45237,
            "type" : "SCALAR"
        },
        {
            "bufferView" : 12,
            "componentType" : 5126,
            "count" : 375,
            "max" : [
                3.1853556632995605,
                0.9247775077819824,
                -0.2413579523563385
            ],
            "min" : [
                -1.604877233505249,
                -0.9232025146484375,
                -0.7278228998184204
            ],
            "type" : "VEC3"
        },
        {
            "bufferView" : 13,
            "componentType" : 5126,
            "count" : 375,
            "type" : "VEC3"
        },
        {
            "bufferView" : 14,
            "componentType" : 5123,
            "count" : 945,
            "type" : "SCALAR"
        },
        {
            "bufferView" : 15,
            "componentType" : 5126,
            "count" : 128,
            "max" : [
                -1.3041613101959229,
                0.8073754906654358,
                -0.6643859148025513
            ],
            "min" : [
                -1.5565202236175537,
                -0.8057975172996521,
                -1.0187439918518066
            ],
            "type" : "VEC3"
        },
        {
            "bufferView" : 16,
            "componentType" : 5126,
            "count" : 128,
            "type" : "VEC3"
        },
        {
            "bufferView" : 17,
            "componentType" : 5123,
            "count" : 576,
            "type" : "SCALAR"
        },
        {
            "bufferView" : 18,
            "componentType" : 5126,
            "count" : 318,
            "max" : [
                3.168595790863037,
                0.8538925051689148,
                -0.3831499516963959
            ],
            "min" : [
                2.840237855911255,
                -0.8523175120353699,
                -0.7831159830093384
            ],
            "type" : "VEC3"
        },
        {
            "bufferView" : 19,
            "componentType" : 5126,
            "count" : 318,
            "type" : "VEC3"
        },
        {
            "bufferView" : 20,
            "componentType" : 5123,
            "count" : 1260,
            "type" : "SCALAR"
        },
        {
            "bufferView" : 21,
            "componentType" : 5126,
            "count" : 971,
            "max" : [
                1.6522836685180664,
                0.8490315079689026,
                -0.4246029555797577
            ],
            "min" : [
                -1.5904831886291504,
                -0.8474544882774353,
                -1.507612943649292
            ],
            "type" : "VEC3"
        },
        {
            "bufferView" : 22,
            "componentType" : 5126,
            "count" : 971,
            "type" : "VEC3"
        },
        {
            "bufferView" : 23,
            "componentType" : 5123,
            "count" : 4335,
            "type" : "SCALAR"
        },
        {
            "bufferView" : 24,
            "componentType" : 5126,
            "count" : 98,
            "max" : [
                1.8774867057800293,
                0.9371144771575928,
                -0.7467689514160156
            ],
            "min" : [
                1.783301830291748,
                -0.9355384707450867,
                -0.7772659063339233
            ],
            "type" : "VEC3"
        },
        {
            "bufferView" : 25,
            "componentType" : 5126,
            "count" : 98,
            "type" : "VEC3"
        },
        {
            "bufferView" : 26,
            "componentType" : 5123,
            "count" : 360,
            "type" : "SCALAR"
        },
        {
            "bufferView" : 27,
            "componentType" : 5126,
            "count" : 803,
            "max" : [
                1.9745256900787354,
                0.8509365320205688,
                -0.9593420028686523
            ],
            "min" : [
                -1.5742583274841309,
                -0.849360466003418,
                -1.4213849306106567
            ],
            "type" : "VEC3"
        },
        {
            "bufferView" : 28,
            "componentType" : 5126,
            "count" : 803,
            "type" : "VEC3"
        },
        {
            "bufferView" : 29,
            "componentType" : 5123,
            "count" : 3834,
            "type" : "SCALAR"
        },
        {
            "bufferView" : 30,
            "componentType" : 5126,
            "count" : 296,
            "max" : [
                2.0454938411712646,
                0.8538734912872314,
                -0.27677294611930847
            ],
            "min" : [
                -0.8010462522506714,
                -0.8471834659576416,
                -1.0330870151519775
            ],
            "type" : "VEC3"
        },
        {
            "bufferView" : 31,
            "componentType" : 5126,
            "count" : 296,
            "type" : "VEC3"
        },
        {
            "bufferView" : 32,
            "componentType" : 5123,
            "count" : 1224,
            "type" : "SCALAR"
        },
        {
            "bufferView" : 33,
            "componentType" : 5126,
            "count" : 3339,
            "max" : [
                3.193406820297241,
                0.9255445003509521,
                -0.3365389406681061
            ],
            "min" : [
                -1.5763802528381348,
                -0.923968493938446,
                -1.5068979263305664
            ],
            "type" : "VEC3"
        },
        {
            "bufferView" : 34,
            "componentType" : 5126,
            "count" : 3339,
            "type" : "VEC3"
        },
        {
            "bufferView" : 35,
            "componentType" : 5123,
            "count" : 10944,
            "type" : "SCALAR"
        },
        {
            "bufferView" : 36,
            "componentType" : 5126,
            "count" : 660,
            "max" : [
                2.4857146739959717,
                0.7554104924201965,
                -0.17196695506572723
            ],
            "min" : [
                -0.9836482405662537,
                -0.7538344860076904,
                -0.5075259208679199
            ],
            "type" : "VEC3"
        },
        {
            "bufferView" : 37,
            "componentType" : 5126,
            "count" : 660,
            "type" : "VEC3"
        },
        {
            "bufferView" : 38,
            "componentType" : 5123,
            "count" : 1584,
            "type" : "SCALAR"
        }
    ],
    "bufferViews" : [
        {
            "buffer" : 0,
            "byteLength" : 13968,
            "byteOffset" : 0
        },
        {
            "buffer" : 0,
            "byteLength" : 13968,
            "byteOffset" : 13968
        },
        {
            "buffer" : 0,
            "byteLength" : 13200,
            "byteOffset" : 27936
        },
        {
            "buffer" : 0,
            "byteLength" : 53412,
            "byteOffset" : 41136
        },
        {
            "buffer" : 0,
            "byteLength" : 53412,
            "byteOffset" : 94548
        },
        {
            "buffer" : 0,
            "byteLength" : 31596,
            "byteOffset" : 147960
        },
        {
            "buffer" : 0,
            "byteLength" : 252,
            "byteOffset" : 179556
        },
        {
            "buffer" : 0,
            "byteLength" : 252,
            "byteOffset" : 179808
        },
        {
            "buffer" : 0,
            "byteLength" : 72,
            "byteOffset" : 180060
        },
        {
            "buffer" : 0,
            "byteLength" : 120816,
            "byteOffset" : 180132
        },
        {
            "buffer" : 0,
            "byteLength" : 120816,
            "byteOffset" : 300948
        },
        {
            "buffer" : 0,
            "byteLength" : 90474,
            "byteOffset" : 421764
        },
        {
            "buffer" : 0,
            "byteLength" : 4500,
            "byteOffset" : 512240
        },
        {
            "buffer" : 0,
            "byteLength" : 4500,
            "byteOffset" : 516740
        },
        {
            "buffer" : 0,
            "byteLength" : 1890,
            "byteOffset" : 521240
        },
        {
            "buffer" : 0,
            "byteLength" : 1536,
            "byteOffset" : 523132
        },
        {
            "buffer" : 0,
            "byteLength" : 1536,
            "byteOffset" : 524668
        },
        {
            "buffer" : 0,
            "byteLength" : 1152,
            "byteOffset" : 526204
        },
        {
            "buffer" : 0,
            "byteLength" : 3816,
            "byteOffset" : 527356
        },
        {
            "buffer" : 0,
            "byteLength" : 3816,
            "byteOffset" : 531172
        },
        {
            "buffer" : 0,
            "byteLength" : 2520,
            "byteOffset" : 534988
        },
        {
            "buffer" : 0,
            "byteLength" : 11652,
            "byteOffset" : 537508
        },
        {
            "buffer" : 0,
            "byteLength" : 11652,
            "byteOffset" : 549160
        },
        {
            "buffer" : 0,
            "byteLength" : 8670,
            "byteOffset" : 560812
        },
        {
            "buffer" : 0,
            "byteLength" : 1176,
            "byteOffset" : 569484
        },
        {
            "buffer" : 0,
            "byteLength" : 1176,
            "byteOffset" : 570660
        },
        {
            "buffer" : 0,
            "byteLength" : 720,
            "byteOffset" : 571836
        },
        {
            "buffer" : 0,
            "byteLength" : 9636,
            "byteOffset" : 572556
        },
        {
            "buffer" : 0,
            "byteLength" : 9636,
            "byteOffset" : 582192
        },
        {
            "buffer" : 0,
            "byteLength" : 7668,
            "byteOffset" : 591828
        },
        {
            "buffer" : 0,
            "byteLength" : 3552,
            "byteOffset" : 599496
        },
        {
            "buffer" : 0,
            "byteLength" : 3552,
            "byteOffset" : 603048
        },
        {
            "buffer" : 0,
            "byteLength" : 2448,
            "byteOffset" : 606600
        },
        {
            "buffer" : 0,
            "byteLength" : 40068,
            "byteOffset" : 609048
        },
        {
            "buffer" : 0,
            "byteLength" : 40068,
            "byteOffset" : 649116
        },
        {
            "buffer" : 0,
            "byteLength" : 21888,
            "byteOffset" : 689184
        },
        {
            "buffer" : 0,
            "byteLength" : 7920,
            "byteOffset" : 711072
        },
        {
            "buffer" : 0,
            "byteLength" : 7920,
            "byteOffset" : 718992
        },
        {
            "buffer" : 0,
            "byteLength" : 3168,
            "byteOffset" : 726912
        }
    ],
    "buffers" : [
        {
            "byteLength" : 730080,
            "uri" : "data:application/octet-stream;base64,"
        }
    ]
}
