{
    "asset" : {
        "generator" : "Khronos glTF Blender I/O v1.7.33",
        "version" : "2.0"
    },
    "scene" : 0,
    "scenes" : [
        {
            "name" : "Scene",
            "nodes" : [
                0
            ]
        }
    ],
    "nodes" : [
        {
            "mesh" : 0,
            "name" : "GTP_CMan_Francis_04_Wk_Adl_Ccs_Adl_Ccs_Mgr.002",
            "rotation" : [
                0.7071068286895752,
                0,
                0,
                0.7071068286895752
            ],
            "scale" : [
                2.299999952316284,
                2.299999952316284,
                2.299999952316284
            ]
        }
    ],
    "materials" : [
        {
            "doubleSided" : true,
            "name" : "diffuse_Black",
            "pbrMetallicRoughness" : {
                "baseColorFactor" : [
                    0.49161025881767273,
                    0.516259491443634,
                    0.5488523840904236,
                    1
                ],
                "metallicFactor" : 0
            }
        }
    ],
    "meshes" : [
        {
            "name" : "GTP_CMan_Francis_04_Wk_Adl_Ccs_Adl_Ccs_Mgr.002",
            "primitives" : [
                {
                    "attributes" : {
                        "POSITION" : 0,
                        "NORMAL" : 1,
                        "TEXCOORD_0" : 2
                    },
                    "indices" : 3,
                    "material" : 0
                }
            ]
        }
    ],
    "accessors" : [
        {
            "bufferView" : 0,
            "componentType" : 5126,
            "count" : 31820,
            "max" : [
                0.08060114830732346,
                0.14275802671909332,
                -0.0032435953617095947
            ],
            "min" : [
                -0.06595885753631592,
                -0.14679226279258728,
                -0.807886004447937
            ],
            "type" : "VEC3"
        },
        {
            "bufferView" : 1,
            "componentType" : 5126,
            "count" : 31820,
            "type" : "VEC3"
        },
        {
            "bufferView" : 2,
            "componentType" : 5126,
            "count" : 31820,
            "type" : "VEC2"
        },
        {
            "bufferView" : 3,
            "componentType" : 5123,
            "count" : 179976,
            "type" : "SCALAR"
        }
    ],
    "bufferViews" : [
        {
            "buffer" : 0,
            "byteLength" : 381840,
            "byteOffset" : 0
        },
        {
            "buffer" : 0,
            "byteLength" : 381840,
            "byteOffset" : 381840
        },
        {
            "buffer" : 0,
            "byteLength" : 254560,
            "byteOffset" : 763680
        },
        {
            "buffer" : 0,
            "byteLength" : 359952,
            "byteOffset" : 1018240
        }
    ],
    "buffers" : [
        {
            "byteLength" : 1378192,
            "uri" : "data:application/octet-stream;base64,"
        }
    ]
}
