{
    "asset" : {
        "generator" : "Khronos glTF Blender I/O v1.7.33",
        "version" : "2.0"
    },
    "scene" : 0,
    "scenes" : [
        {
            "name" : "Scene",
            "nodes" : [
                0
            ]
        }
    ],
    "nodes" : [
        {
            "mesh" : 0,
            "name" : "1",
            "rotation" : [
                0.7071068286895752,
                0,
                0,
                0.7071068286895752
            ],
            "scale" : [
                0.4000000059604645,
                0.3499999940395355,
                0.4000000059604645
            ]
        }
    ],
    "materials" : [
        {
            "doubleSided" : true,
            "name" : "diffuse_Black",
            "pbrMetallicRoughness" : {
                "baseColorFactor" : [
                    0.49161025881767273,
                    0.516259491443634,
                    0.5488523840904236,
                    1
                ],
                "metallicFactor" : 0
            }
        }
    ],
    "meshes" : [
        {
            "name" : "1",
            "primitives" : [
                {
                    "attributes" : {
                        "POSITION" : 0,
                        "NORMAL" : 1,
                        "TEXCOORD_0" : 2
                    },
                    "indices" : 3,
                    "material" : 0
                }
            ]
        }
    ],
    "accessors" : [
        {
            "bufferView" : 0,
            "componentType" : 5126,
            "count" : 2172,
            "max" : [
                9.696001052856445,
                3.9398274421691895,
                -0.11654043197631836
            ],
            "min" : [
                -8.402128219604492,
                -3.885418176651001,
                -6.799276351928711
            ],
            "type" : "VEC3"
        },
        {
            "bufferView" : 1,
            "componentType" : 5126,
            "count" : 2172,
            "type" : "VEC3"
        },
        {
            "bufferView" : 2,
            "componentType" : 5126,
            "count" : 2172,
            "type" : "VEC2"
        },
        {
            "bufferView" : 3,
            "componentType" : 5123,
            "count" : 10692,
            "type" : "SCALAR"
        }
    ],
    "bufferViews" : [
        {
            "buffer" : 0,
            "byteLength" : 26064,
            "byteOffset" : 0
        },
        {
            "buffer" : 0,
            "byteLength" : 26064,
            "byteOffset" : 26064
        },
        {
            "buffer" : 0,
            "byteLength" : 17376,
            "byteOffset" : 52128
        },
        {
            "buffer" : 0,
            "byteLength" : 21384,
            "byteOffset" : 69504
        }
    ],
    "buffers" : [
        {
            "byteLength" : 90888,
            "uri" : "data:application/octet-stream;base64,"
        }
    ]
}
